<?xml version="1.0" encoding="iso-8859-1"?>
<!-- Uploaded to: SVG Repo, www.svgrepo.com, Generator: SVG Repo Mixer Tools -->
<svg fill="#000000" version="1.1" id="Layer_1" xmlns="http://www.w3.org/2000/svg" xmlns:xlink="http://www.w3.org/1999/xlink" 
	 viewBox="0 0 512 512" xml:space="preserve">
<g>
	<g>
		<g>
			<path d="M91.749,423c19.013-19.013,21.054-44.562,5.969-64.342l15.522-15.522l-10.754-10.754l-15.528,15.528
				c-8.57-6.5-18.527-10.013-28.668-10.013c-12.884,0-25.218,5.524-35.67,15.974c-33.824,33.825-17.658,79.61-16.954,81.544
				l1.213,3.327l3.326,1.212c0.494,0.18,12.282,4.412,28.131,4.412c0.003-0.001,0.003-0.001,0.004-0.001
				C59.302,444.365,77.771,436.977,91.749,423z M80.994,412.245c-2.526,2.527-5.219,4.757-8.058,6.721v-35.527l13.898-13.897
				C96.056,383.038,94.077,399.163,80.994,412.245z M33.375,364.626c7.536-7.538,16.151-11.522,24.915-11.522
				c6.14,0,12.259,1.997,17.764,5.708l-13.872,13.872h-35.53C28.556,369.931,30.772,367.229,33.375,364.626z M19.243,387.892h27.731
				l-29.862,29.861C16.013,409.836,15.755,399.026,19.243,387.892z M27.931,428.445l29.797-29.797v27.701
				c-6,1.859-12.467,2.81-19.391,2.809C34.54,429.157,31.02,428.861,27.931,428.445z"/>
			<path d="M38.336,459.573l0.003,15.208c29.205,0,55.11-10.468,74.917-30.274l-10.755-10.755
				C85.61,450.644,63.423,459.573,38.336,459.573z"/>
			<path d="M58.29,322.689v-15.208c-20.825,0-41.13,8.838-57.177,24.884l10.754,10.752C25.041,329.945,41.527,322.689,58.29,322.689
				z"/>
			<path d="M190.639,285.677c0,25.521-20.763,46.284-46.284,46.284v15.208c33.907,0,61.492-27.585,61.492-61.492v-38.125h-15.208
				V285.677z"/>
			<path d="M144.356,301.545h-26.339v15.208h26.339c17.135,0,31.076-13.941,31.076-31.076v-15.99h-15.208v15.99
				C160.224,294.426,153.105,301.545,144.356,301.545z"/>
			<rect x="160.221" y="212.911" width="15.208" height="36.499"/>
			<path d="M451.576,3.042v396.55h-9.125c-52.343,0-94.926-42.583-94.926-94.926V274.06l90.917-90.917l-10.754-10.754L389.177,210.9
				v-36.687h-15.208v51.895l-26.443,26.443V146.949l42.118-42.118h43.422V89.623h-28.214l33.591-33.591l-10.756-10.754
				l-80.162,80.162V0h-45.624v118.879c-9.178-3.905-19.069-5.934-29.165-5.934h-37.322l-25.03-25.03V29.506h-15.208v43.202
				l-31.431-31.43h-25.102C135.326,16.623,115.817,0,88.928,0c-47.837,0-68.78,43.807-69.649,45.672l-1.493,3.209l1.494,3.209
				c0.867,1.866,21.811,45.671,69.648,45.671c26.889,0,46.398-16.622,49.716-41.276h18.803l56.46,56.46H95.138v45.624h138.349
				l-40.62,40.62l10.754,10.754l51.375-51.375h17.742c16.081,0,29.165,13.083,29.165,29.165v116.933
				c0,54.643,31.339,102.1,76.993,125.342h-59.851l-76.581-76.581l-10.754,10.754l20.812,20.812h-35.652v15.208h50.86l29.807,29.807
				h-85.736v45.624h239.778V512h59.311V3.042H451.576z M62.535,21.72l19.557,19.557h-42.15C44.787,34.93,52.26,27.129,62.535,21.72z
				 M39.859,56.485h42.232L62.482,76.094C52.141,70.686,44.679,62.858,39.859,56.485z M88.928,82.554
				c-3.681,0-7.158-0.344-10.452-0.945l25.124-25.123h19.653C120.231,72.551,107.43,82.554,88.928,82.554z M103.6,41.277
				L78.489,16.165c3.292-0.608,6.766-0.957,10.439-0.957c18.502,0,31.303,10.004,34.324,26.069H103.6z M466.784,496.792v-36.369
				H227.006v-15.208h215.446v-15.208c-69.114,0-125.342-56.228-125.342-125.342V187.734c0-24.468-19.905-44.373-44.373-44.373
				H110.346v-15.208h162.391c11.611,0,22.882,3.371,32.595,9.748l11.777,7.733V15.208h15.208v289.457
				c0,60.727,49.405,110.134,110.134,110.134h24.333V18.25h28.895v478.543H466.784z"/>
		</g>
	</g>
</g>
</svg>